<?xml version="1.0" encoding="utf-8"?>
<!-- Generator: Adobe Illustrator 26.5.0, SVG Export Plug-In . SVG Version: 6.00 Build 0)  -->
<svg version="1.1" id="Layer_1" xmlns="http://www.w3.org/2000/svg" xmlns:xlink="http://www.w3.org/1999/xlink" x="0px" y="0px"
	 viewBox="0 0 281.5 182.1" style="enable-background:new 0 0 281.5 182.1;" xml:space="preserve" width="281.5" height="182.1">
<style type="text/css">
	.st0{fill:#26A9E0;}
	.st1{fill:#FFFFFF;fill-opacity:0;stroke:#000000;stroke-width:2.254;stroke-miterlimit:10;}
	.st2{fill-opacity:0;stroke:#6D6D6D;stroke-width:1.123;stroke-miterlimit:10;}
	.st3{fill:#6D6D6D;}
</style>
<g>
	<g>
		<g transform="matrix(1,0,0,1,0.897003173828125,0.514007568359375)">
			<g transform="matrix(1,0,0,1,1.6820068359375,-0.30999755859375)">
				<g transform="matrix(1,0,0,1,245.4510040283203,272.4630126953125)">
					<path d="M-173.9-99.5c1.2-0.1,2.3,0.2,3.4,0.7c0.6,0.4,1,0.9,1.3,1.5c0.3,0.7,0.5,1.4,0.5,2.2c0.1,1.5-0.6,2.9-1.8,3.8
						c-1,0.5-2.2,0.8-3.4,0.7h-4.9v-8.8H-173.9z M-174.1-98.3h-3.2v6.4h3.2c1,0.1,2.1-0.2,2.9-0.7c0.7-0.6,1.1-1.6,1-2.6
						c0.1-0.9-0.3-1.9-1-2.5C-172.1-98.1-173.1-98.4-174.1-98.3z"/>
				</g>
				<g transform="matrix(1,0,0,1,272.1960144042969,272.4620056152344)">
					<path d="M-178-90.6v-8.8h8.5v1.2h-7v2.5h4.3v1.2h-4.3v2.8h7.1v1.2H-178z"/>
				</g>
				<g transform="matrix(1,0,0,1,297.9779968261719,272.4630126953125)">
					<path d="M-170.4-98.3h-6.3v2.5h5.6c0.6-0.1,1.2,0.1,1.6,0.4c0.3,0.5,0.5,1.1,0.4,1.6v1c0.1,0.6-0.1,1.2-0.4,1.7
						c-0.5,0.3-1.1,0.5-1.6,0.4h-5.2c-0.6,0.1-1.2-0.1-1.6-0.4c-0.3-0.5-0.5-1.1-0.4-1.7V-93l1.4-0.3v1.4h6.6v-2.7h-5.6
						c-0.6,0.1-1.2-0.1-1.6-0.4c-0.3-0.5-0.5-1.1-0.4-1.7v-0.8c-0.1-0.6,0.1-1.2,0.4-1.7c0.5-0.3,1-0.5,1.6-0.4h4.7
						c0.6-0.1,1.1,0.1,1.6,0.4c0.4,0.4,0.5,1,0.5,1.5v0.2l-1.3,0.4V-98.3z"/>
				</g>
				<g transform="matrix(1,0,0,1,321.5419921875,272.4620056152344)">
					<path d="M-174.4-99.5h1.5v8.8h-1.5V-99.5z"/>
				</g>
				<g transform="matrix(1,0,0,1,345.39599609375,272.4620056152344)">
					<path d="M-170.2-98.3h-6.9v6.4h6.9v-2.6h-3.6v-1.1h5.1v2.9c0.1,0.6-0.1,1.2-0.4,1.7c-0.5,0.3-1.1,0.5-1.6,0.4h-5.7
						c-0.6,0.1-1.2-0.1-1.6-0.4c-0.3-0.5-0.5-1.1-0.4-1.7v-4.7c-0.1-0.6,0.1-1.2,0.4-1.7c0.5-0.3,1.1-0.5,1.6-0.4h5.7
						c0.6-0.1,1.1,0.1,1.6,0.4c0.4,0.4,0.5,1,0.5,1.6v0.2l-1.5,0.3V-98.3z"/>
				</g>
				<g transform="matrix(1,0,0,1,373.1830139160156,272.4620056152344)">
					<path d="M-178.6-90.6v-8.8h0.9l6.6,5.9c0.4,0.3,0.7,0.7,1,1.1c-0.1-0.7-0.2-1.4-0.1-2.2v-4.8h1.4v8.8h-0.8l-6.8-6.2
						c-0.3-0.2-0.4-0.4-0.4-0.4c-0.2-0.2-0.3-0.4-0.5-0.6c0.1,0.6,0.1,1.3,0.1,1.9v5.2H-178.6z"/>
				</g>
				<g transform="matrix(1,0,0,1,400.62701416015625,272.4630126953125)">
					<path d="M-170.4-98.3h-6.3v2.5h5.6c0.6-0.1,1.2,0.1,1.6,0.4c0.3,0.5,0.5,1.1,0.4,1.6v1c0.1,0.6-0.1,1.2-0.4,1.7
						c-0.5,0.3-1.1,0.5-1.6,0.4h-5.2c-0.6,0.1-1.2-0.1-1.6-0.4c-0.3-0.5-0.5-1.1-0.4-1.7V-93l1.4-0.3v1.4h6.6v-2.7h-5.6
						c-0.6,0.1-1.2-0.1-1.6-0.4c-0.3-0.5-0.5-1.1-0.4-1.7v-0.8c-0.1-0.6,0.1-1.2,0.4-1.7c0.5-0.3,1-0.5,1.6-0.4h4.7
						c0.6-0.1,1.1,0.1,1.6,0.4c0.4,0.4,0.5,1,0.5,1.5v0.2l-1.3,0.4V-98.3z"/>
				</g>
				<g transform="matrix(1,0,0,1,340.74200439453125,240.25799560546875)">
					<path d="M-173.1-84.3c-1.7,0-3.3-0.2-4.9-0.8c-1.4-0.5-2.7-1.2-3.8-2.2c-1.1-0.9-1.9-2.1-2.4-3.4c-1.2-2.8-1.2-6,0-8.8
						c0.6-1.3,1.4-2.5,2.4-3.4c1.1-1,2.4-1.7,3.8-2.2c1.6-0.5,3.2-0.8,4.9-0.8c1.1,0,2.2,0.1,3.2,0.3c1,0.2,2,0.5,3,0.9
						c0.9,0.4,1.8,1,2.6,1.6c0.9,0.7,1.6,1.5,2.2,2.5l-2.9,1.9c-0.5-0.7-1-1.3-1.6-1.8c-0.6-0.5-1.2-0.8-1.9-1.1
						c-0.7-0.3-1.4-0.5-2.2-0.6c-0.8-0.1-1.6-0.2-2.4-0.2c-1.2,0-2.3,0.2-3.5,0.5c-1,0.3-1.9,0.8-2.7,1.5c-0.7,0.6-1.3,1.4-1.7,2.3
						c-0.8,1.9-0.8,4,0,5.9c0.4,0.9,1,1.7,1.7,2.3c0.8,0.7,1.7,1.2,2.7,1.5c1.1,0.4,2.3,0.5,3.5,0.5c1.6,0,3.1-0.3,4.6-0.9
						c1.5-0.7,2.7-1.8,3.6-3.1l2.9,1.9c-1.2,1.8-2.9,3.3-4.9,4.3C-168.8-84.7-170.9-84.3-173.1-84.3z"/>
				</g>
				<g transform="matrix(1,0,0,1,366.0639953613281,240.13900756835938)">
					<path d="M-173.7-84.2c-1.7,0-3.4-0.2-5-0.8c-1.4-0.5-2.7-1.2-3.9-2.2c-1.1-0.9-1.9-2.1-2.5-3.4c-1.2-2.8-1.2-6,0-8.8
						c0.6-1.3,1.4-2.5,2.5-3.4c1.1-1,2.4-1.7,3.9-2.2c3.3-1,6.8-1,10.1,0c1.4,0.5,2.7,1.2,3.9,2.2c1.1,0.9,1.9,2.1,2.5,3.4
						c1.2,2.8,1.2,6,0,8.8c-0.6,1.3-1.4,2.5-2.5,3.4c-1.1,1-2.4,1.7-3.9,2.2C-170.3-84.4-172-84.2-173.7-84.2z M-173.7-102.2
						c-1.2,0-2.4,0.2-3.6,0.5c-1,0.3-1.9,0.8-2.8,1.5c-0.8,0.6-1.4,1.4-1.8,2.3c-0.8,1.9-0.8,4,0,5.9c0.4,0.9,1,1.7,1.8,2.3
						c0.8,0.7,1.8,1.2,2.8,1.5c1.2,0.4,2.4,0.5,3.6,0.5c1.2,0,2.4-0.2,3.6-0.5c1-0.3,1.9-0.8,2.8-1.5c0.8-0.6,1.4-1.4,1.8-2.3
						c0.8-1.9,0.8-4,0-5.9c-0.4-0.9-1-1.7-1.8-2.3c-0.8-0.7-1.7-1.2-2.8-1.5C-171.3-102-172.5-102.2-173.7-102.2z"/>
				</g>
				<g transform="matrix(1,0,0,1,393.3139953613281,240.13900756835938)">
					<path d="M-173.7-84.2c-1.7,0-3.4-0.2-5-0.8c-1.4-0.5-2.7-1.2-3.9-2.2c-1.1-0.9-1.9-2.1-2.5-3.4c-1.2-2.8-1.2-6,0-8.8
						c0.6-1.3,1.4-2.5,2.5-3.4c1.1-1,2.4-1.7,3.9-2.2c3.3-1,6.8-1,10.1,0c1.4,0.5,2.7,1.2,3.9,2.2c1.1,0.9,1.9,2.1,2.5,3.4
						c1.2,2.8,1.2,6,0,8.8c-0.6,1.3-1.4,2.5-2.5,3.4c-1.1,1-2.4,1.7-3.9,2.2C-170.3-84.4-172-84.2-173.7-84.2z M-173.7-102.2
						c-1.2,0-2.4,0.2-3.6,0.5c-1,0.3-1.9,0.8-2.8,1.5c-0.8,0.6-1.4,1.4-1.8,2.3c-0.8,1.9-0.8,4,0,5.9c0.4,0.9,1,1.7,1.8,2.3
						c0.8,0.7,1.8,1.2,2.8,1.5c1.2,0.4,2.4,0.5,3.6,0.5c1.2,0,2.4-0.2,3.6-0.5c1-0.3,1.9-0.8,2.8-1.5c0.8-0.6,1.4-1.4,1.8-2.3
						c0.8-1.9,0.8-4,0-5.9c-0.4-0.9-1-1.7-1.8-2.3c-0.8-0.7-1.7-1.2-2.8-1.5C-171.3-102-172.5-102.2-173.7-102.2z"/>
				</g>
				<g transform="matrix(1,0,0,1,419.50799560546875,240.28399658203125)">
					<path d="M-162.8-85.1h-21.9V-105h3.5v16.4h18.3V-85.1z"/>
				</g>
				<g transform="matrix(1,0,0,1,321.947998046875,240.77499389648438)">
					<path d="M-174.2-82.5l0.1-25.1l1,0l-0.1,25.1L-174.2-82.5z"/>
				</g>
				<g transform="matrix(1,0,0,1,219.66400146484375,240.92599487304688)">
					<path d="M-178.3-97.4c1.5,2.9,3.1,5.8,4.7,8.8c0.2-0.4,0.5-1,0.9-1.7c0.4-0.8,0.9-1.6,1.4-2.6c0.5-1,1.1-2,1.7-3.2
						c0.6-1.1,1.2-2.3,1.9-3.5c0.6-1.2,1.3-2.3,1.9-3.5c0.6-1.1,1.2-2.2,1.7-3.2h0.4c0.2,2,0.5,4,0.7,5.9c0.2,1.9,0.4,3.8,0.6,5.6
						c0.2,1.8,0.4,3.7,0.6,5.5c0.2,1.8,0.4,3.6,0.7,5.4c-0.2,0-0.5-0.1-0.8-0.1h-1.5c-0.3,0-0.5,0-0.8,0.1c-0.2-2.8-0.5-5.6-0.7-8.3
						c-0.2-2.7-0.5-5.4-0.9-8.2h-0.1c-1.5,2.7-2.9,5.4-4.3,8c-1.4,2.7-2.8,5.4-4,8.3h-0.3c-1.3-2.7-2.6-5.4-4-8.1
						c-1.4-2.7-2.8-5.5-4.2-8.3h-0.1c-0.1,1.3-0.3,2.8-0.5,4.3c-0.2,1.5-0.3,3.1-0.5,4.6c-0.2,1.5-0.3,2.9-0.4,4.3
						c-0.1,1.3-0.2,2.4-0.2,3.3c-0.7-0.1-1.5-0.1-2.2,0c0.3-1.7,0.6-3.6,0.9-5.5c0.3-1.9,0.6-3.9,0.9-5.8c0.3-1.9,0.5-3.9,0.8-5.7
						c0.2-1.9,0.4-3.7,0.6-5.4h0.5C-181.3-103.2-179.8-100.3-178.3-97.4z"/>
				</g>
				<g transform="matrix(1,0,0,1,242.8800048828125,244.51699829101562)">
					<path d="M-181.6-95c0-1.3,0.2-2.5,0.7-3.7c0.4-0.9,1-1.8,1.8-2.5c0.7-0.6,1.6-1.1,2.5-1.4c1.8-0.6,3.7-0.6,5.6,0
						c0.9,0.3,1.8,0.8,2.5,1.4c0.8,0.7,1.4,1.5,1.8,2.5c0.9,2.4,0.9,5,0,7.4c-0.4,0.9-1,1.8-1.8,2.5c-0.7,0.6-1.6,1.1-2.5,1.3
						c-1.8,0.5-3.7,0.5-5.6,0c-0.9-0.3-1.8-0.7-2.5-1.3c-0.8-0.7-1.4-1.5-1.8-2.5C-181.4-92.5-181.6-93.7-181.6-95z M-178.7-95
						c0,0.9,0.1,1.7,0.2,2.6c0.1,0.8,0.4,1.5,0.8,2.2c0.4,0.6,0.9,1.2,1.5,1.6c1.5,0.8,3.3,0.8,4.7,0c0.6-0.4,1.2-0.9,1.5-1.6
						c0.4-0.7,0.7-1.4,0.8-2.2c0.3-1.7,0.3-3.5,0-5.2c-0.1-0.8-0.4-1.5-0.8-2.2c-0.4-0.6-0.9-1.2-1.5-1.6c-1.5-0.8-3.3-0.8-4.7,0
						c-0.6,0.4-1.2,0.9-1.5,1.6c-0.4,0.7-0.7,1.4-0.8,2.2C-178.7-96.7-178.8-95.9-178.7-95z"/>
				</g>
				<g transform="matrix(1,0,0,1,260.3210144042969,240.22799682617188)">
					<path d="M-169.1-86.2c-0.2,0.4-0.4,0.8-0.7,1.1c-0.3,0.4-0.7,0.8-1.1,1.1c-0.5,0.4-1,0.6-1.6,0.8c-0.7,0.2-1.4,0.3-2.1,0.3
						c-0.8,0-1.6-0.1-2.4-0.4c-0.8-0.3-1.5-0.7-2.1-1.4c-0.7-0.7-1.2-1.5-1.5-2.4c-0.4-1.1-0.6-2.4-0.6-3.6c0-1.2,0.2-2.4,0.6-3.6
						c0.4-0.9,0.9-1.8,1.6-2.5c0.6-0.7,1.4-1.2,2.2-1.5c0.8-0.3,1.6-0.5,2.5-0.5c2.2-0.1,4.2,1.2,4.9,3.2h0.1v-3.1
						c0-0.8,0-1.6,0-2.4c0-0.8,0-1.6,0-2.4c0-0.7,0-1.4,0-2.1c0-0.7,0-1.2,0-1.8c0.3,0,0.5,0.1,0.7,0.1c0.2,0,0.5,0,0.7,0
						c0.2,0,0.5,0,0.7,0c0.2,0,0.5-0.1,0.8-0.1c-0.1,0.7-0.1,1.7-0.2,3c0,1.3-0.1,2.7-0.1,4.3c0,1.6-0.1,3.2-0.1,4.8
						c0,1.6,0,3.1,0,4.5c0,1.5,0,2.8,0,4c0,1.2,0,2.4,0.1,3.6c-0.4,0-0.8-0.1-1.2-0.1c-0.4,0-0.8,0-1.2,0.1L-169.1-86.2L-169.1-86.2
						z M-178.2-90.4c0,1.1,0.1,2.1,0.4,3.2c0.2,0.7,0.6,1.4,1,2c0.4,0.5,0.9,0.8,1.4,1c0.5,0.2,1,0.3,1.6,0.3c0.8,0,1.5-0.2,2.1-0.6
						c0.6-0.4,1.1-1,1.5-1.6c0.4-0.7,0.7-1.5,0.9-2.3c0.2-0.8,0.3-1.7,0.3-2.6c0.1-1.6-0.3-3.3-1.2-4.7c-0.8-1.1-2.1-1.7-3.5-1.6
						c-0.7,0-1.4,0.2-2,0.5c-0.6,0.4-1.1,0.9-1.4,1.5c-0.4,0.7-0.7,1.4-0.8,2.2C-178.1-92.2-178.2-91.3-178.2-90.4z"/>
				</g>
				<g transform="matrix(1,0,0,1,277.5050048828125,244.46499633789062)">
					<path d="M-180.6-94.5c-0.1-2.2,0.5-4.4,1.9-6.2c1.4-1.5,3.4-2.4,5.5-2.2c1,0,2,0.2,2.9,0.5c0.8,0.3,1.5,0.8,2.1,1.4
						c0.6,0.6,1,1.3,1.2,2.1c0.3,0.8,0.4,1.7,0.4,2.5c0,0.2,0,0.4,0,0.6c0,0.2,0,0.4,0,0.6c-1.2,0-2.3,0-3.4-0.1c-1.1,0-2.3,0-3.4,0
						c-0.7,0-1.4,0-2.1,0c-0.7,0-1.4,0-2.1,0.1c0,0.2,0,0.3,0,0.5v0.4c0,0.8,0.1,1.6,0.4,2.3c0.2,0.7,0.6,1.3,1.1,1.9
						c0.5,0.5,1.1,1,1.7,1.2c0.7,0.3,1.6,0.5,2.4,0.5c0.4,0,0.9-0.1,1.3-0.2c0.5-0.1,0.9-0.3,1.3-0.5c0.4-0.2,0.8-0.4,1.2-0.7
						c0.4-0.3,0.7-0.6,1-0.9l0.2,0.1l-0.2,1.6c-0.7,0.6-1.5,1-2.4,1.3c-0.9,0.4-1.9,0.5-3,0.5c-1.1,0-2.1-0.2-3.2-0.5
						c-0.9-0.3-1.8-0.9-2.5-1.5c-0.7-0.7-1.2-1.5-1.6-2.4C-180.4-92.5-180.6-93.5-180.6-94.5z M-173.2-101.9c-0.7,0-1.4,0.2-2,0.5
						c-0.5,0.4-1,0.8-1.3,1.4c-0.4,0.6-0.6,1.2-0.8,1.8c-0.2,0.6-0.3,1.2-0.3,1.8c0.7,0,1.3,0,2.1,0.1c0.7,0,1.4,0,2.1,0
						c0.7,0,1.4,0,2.1,0c0.7,0,1.4,0,2.1-0.1c0-0.6-0.1-1.2-0.1-1.8c-0.1-0.6-0.3-1.2-0.6-1.8c-0.3-0.5-0.7-1-1.2-1.4
						C-171.8-101.7-172.5-101.9-173.2-101.9z"/>
				</g>
				<g transform="matrix(1,0,0,1,291.7909851074219,244.36500549316406)">
					<path d="M-170.9-100.2c-0.3-0.1-0.6-0.2-0.9-0.2c-0.5,0-1,0.1-1.4,0.4c-0.4,0.2-0.8,0.6-1,0.9c-0.3,0.4-0.5,0.9-0.6,1.4
						c-0.2,0.6-0.2,1.2-0.2,1.7v3.5c0,1.4,0,2.5,0,3.3c0,0.6,0,1.2,0.1,1.8c-0.4,0-0.9-0.1-1.3-0.1c-0.4,0-0.9,0-1.3,0.1
						c0.1-0.7,0.1-1.7,0.1-3c0-1.2,0-2.8,0-4.6v-1c0-0.8,0-1.8,0-2.9c0-1.1,0-2.3-0.1-3.7c0.2,0,0.5,0.1,0.7,0.1c0.2,0,0.4,0,0.7,0
						c0.2,0,0.4,0,0.6,0c0.2,0,0.4-0.1,0.7-0.1c-0.1,0.8-0.1,1.4-0.1,1.8c0,0.4,0,0.9,0,1.3l0.1,0c1.3-2.3,2.7-3.5,4.2-3.5
						c0.2,0,0.3,0,0.5,0c0.2,0,0.4,0.1,0.5,0.2c-0.1,0.4-0.2,0.8-0.2,1.2c0,0.5,0,1,0,1.4l-0.2,0.2
						C-170.4-100-170.6-100.1-170.9-100.2z"/>
				</g>
				<g transform="matrix(1,0,0,1,305.0379943847656,244.3520050048828)">
					<path d="M-170.7-99.9c-0.6-0.8-1.6-1.3-2.6-1.2c-1.3-0.1-2.5,0.4-3.3,1.4c-0.8,1.1-1.1,2.5-1,3.9v2.7c0,1,0,2,0,3
						c0,1.1,0.1,2,0.2,2.9c-0.5,0-1-0.1-1.4-0.1c-0.5,0-1,0-1.4,0.1c0.1-0.9,0.2-1.8,0.2-2.9c0-1.1,0-2.1,0-3v-3.3c0-1,0-2,0-3
						c0-1.1-0.1-2-0.2-3c0.5,0.1,1,0.1,1.4,0.2c0.2,0,0.4,0,0.6,0c0.2,0,0.4-0.1,0.7-0.1c-0.1,0.9-0.1,1.7-0.1,2.6h0.1
						c0.5-0.9,1.3-1.6,2.1-2.1c0.9-0.5,1.9-0.8,3-0.8c0.6,0,1.2,0.1,1.8,0.3c0.6,0.2,1.2,0.5,1.6,0.9c0.5,0.5,0.9,1,1.2,1.7
						c0.3,0.9,0.5,1.8,0.5,2.7c0,0.9,0,1.9-0.1,2.8c0,1-0.1,2-0.1,3.1v2.1c0,0.3,0,0.7,0,1c0,0.3,0,0.6,0,0.9
						c-0.4,0-0.9-0.1-1.3-0.1c-0.4,0-0.9,0-1.3,0.1c0-1.1,0.1-2.3,0.1-3.4c0.1-1.2,0.1-2.4,0.1-3.6v-2
						C-169.7-97.5-170-98.8-170.7-99.9z"/>
				</g>
			</g>
			<g transform="matrix(1,0,0,1,0,0)">
				<g transform="matrix(1,0,0,1,313.31201171875,164.44900512695312)">
					<path d="M-190.7-94.5l22.6-13.8v20.3l-12-7.7v35.6l-19.5-8.5V-89l4.6-2.8L-190.7-94.5z M-196.2-94.2l-6.1,3.6v23.6l24.9,10.9
						v-34.6l15.5,10v24.6l16.8-7.9v-10l-14.1-8.3v-51.3l-26.1-0.2v33.3l-5.4,3.2L-196.2-94.2z M-161.9-84.1l-3.5-2.3v-27l-17.2,11.1
						v-28.8l20.8,0V-84.1z M-147.8-65.7l-11.5,5.5v-18.8l11.5,6.6V-65.7z"/>
					<g transform="matrix(1,0,0,1,0,0)">
					</g>
				</g>
				<g transform="matrix(1,0,0,1,310.3429870605469,135.156005859375)">
					<path class="st0" d="M-179.7-101.9v13.8l11.9-13.7L-179.7-101.9z"/>
					<g transform="matrix(1,0,0,1,0,0)">
					</g>
				</g>
				<g transform="matrix(1,0,0,1,310.4880065917969,135.8000030517578)">
					<path class="st1" d="M-166-103.7l-15.3,17.3"/>
					<g transform="matrix(1,0,0,1,0,0)">
					</g>
				</g>
				<g transform="matrix(1,0,0,1,346.8039855957031,104.5270004272461)">
					<path class="st2" d="M-173.7-104.5c5.2,0,9.4,4.2,9.4,9.4c0,5.2-4.2,9.4-9.4,9.4s-9.4-4.2-9.4-9.4
						C-183.1-100.3-178.9-104.5-173.7-104.5z"/>
					<g transform="matrix(1,0,0,1,0,0)">
					</g>
				</g>
				<g transform="matrix(1,0,0,1,399.2049865722656,190.7530059814453)">
					<path class="st3" d="M-228.8-99.9v9.6h110.3v-0.5h-99.3L-228.8-99.9z"/>
					<g transform="matrix(1,0,0,1,0,0)">
					</g>
				</g>
				<g transform="matrix(1,0,0,1,227.4250030517578,181.44400024414062)">
					<path class="st3" d="M-119.2-83.7l0.2-22.6h-109.3v0.5h75L-119.2-83.7z"/>
					<g transform="matrix(1,0,0,1,0,0)">
					</g>
				</g>
			</g>
		</g>
	</g>
</g>
</svg>
