<svg version="1.1" id="Layer_1" xmlns="http://www.w3.org/2000/svg" x="0" y="0" viewBox="0 0 281.5 182.1" style="enable-background:new 0 0 281.5 182.1" xml:space="preserve" width="281.5" height="182.1">
  <style>
    .st3{fill:#6d6d6d}
  </style>
  <path d="M-173.9-99.5c1.2-.1 2.3.2 3.4.7.6.4 1 .9 1.3 1.5.3.7.5 1.4.5 2.2.1 1.5-.6 2.9-1.8 3.8-1 .5-2.2.8-3.4.7h-4.9v-8.8h4.9zm-.2 1.2h-3.2v6.4h3.2c1 .1 2.1-.2 2.9-.7.7-.6 1.1-1.6 1-2.6.1-.9-.3-1.9-1-2.5-.9-.4-1.9-.7-2.9-.6z" transform="translate(248.03 272.667)"/>
  <path d="M-178-90.6v-8.8h8.5v1.2h-7v2.5h4.3v1.2h-4.3v2.8h7.1v1.2h-8.6z" transform="translate(274.775 272.666)"/>
  <path d="M-170.4-98.3h-6.3v2.5h5.6c.6-.1 1.2.1 1.6.4.3.5.5 1.1.4 1.6v1c.1.6-.1 1.2-.4 1.7-.5.3-1.1.5-1.6.4h-5.2c-.6.1-1.2-.1-1.6-.4-.3-.5-.5-1.1-.4-1.7v-.2l1.4-.3v1.4h6.6v-2.7h-5.6c-.6.1-1.2-.1-1.6-.4-.3-.5-.5-1.1-.4-1.7v-.8c-.1-.6.1-1.2.4-1.7.5-.3 1-.5 1.6-.4h4.7c.6-.1 1.1.1 1.6.4.4.4.5 1 .5 1.5v.2l-1.3.4v-1.2z" transform="translate(300.557 272.667)"/>
  <path d="M-174.4-99.5h1.5v8.8h-1.5v-8.8z" transform="translate(324.121 272.666)"/>
  <path d="M-170.2-98.3h-6.9v6.4h6.9v-2.6h-3.6v-1.1h5.1v2.9c.1.6-.1 1.2-.4 1.7-.5.3-1.1.5-1.6.4h-5.7c-.6.1-1.2-.1-1.6-.4-.3-.5-.5-1.1-.4-1.7v-4.7c-.1-.6.1-1.2.4-1.7.5-.3 1.1-.5 1.6-.4h5.7c.6-.1 1.1.1 1.6.4.4.4.5 1 .5 1.6v.2l-1.5.3v-1.3z" transform="translate(347.975 272.666)"/>
  <path d="M-178.6-90.6v-8.8h.9l6.6 5.9c.4.3.7.7 1 1.1-.1-.7-.2-1.4-.1-2.2v-4.8h1.4v8.8h-.8l-6.8-6.2c-.3-.2-.4-.4-.4-.4-.2-.2-.3-.4-.5-.6.1.6.1 1.3.1 1.9v5.2h-1.4z" transform="translate(375.762 272.666)"/>
  <path d="M-170.4-98.3h-6.3v2.5h5.6c.6-.1 1.2.1 1.6.4.3.5.5 1.1.4 1.6v1c.1.6-.1 1.2-.4 1.7-.5.3-1.1.5-1.6.4h-5.2c-.6.1-1.2-.1-1.6-.4-.3-.5-.5-1.1-.4-1.7v-.2l1.4-.3v1.4h6.6v-2.7h-5.6c-.6.1-1.2-.1-1.6-.4-.3-.5-.5-1.1-.4-1.7v-.8c-.1-.6.1-1.2.4-1.7.5-.3 1-.5 1.6-.4h4.7c.6-.1 1.1.1 1.6.4.4.4.5 1 .5 1.5v.2l-1.3.4v-1.2z" transform="translate(403.206 272.667)"/>
  <path d="M-173.1-84.3c-1.7 0-3.3-.2-4.9-.8-1.4-.5-2.7-1.2-3.8-2.2-1.1-.9-1.9-2.1-2.4-3.4-1.2-2.8-1.2-6 0-8.8.6-1.3 1.4-2.5 2.4-3.4 1.1-1 2.4-1.7 3.8-2.2 1.6-.5 3.2-.8 4.9-.8 1.1 0 2.2.1 3.2.3 1 .2 2 .5 3 .9.9.4 1.8 1 2.6 1.6.9.7 1.6 1.5 2.2 2.5l-2.9 1.9c-.5-.7-1-1.3-1.6-1.8-.6-.5-1.2-.8-1.9-1.1-.7-.3-1.4-.5-2.2-.6-.8-.1-1.6-.2-2.4-.2-1.2 0-2.3.2-3.5.5-1 .3-1.9.8-2.7 1.5-.7.6-1.3 1.4-1.7 2.3-.8 1.9-.8 4 0 5.9.4.9 1 1.7 1.7 2.3.8.7 1.7 1.2 2.7 1.5 1.1.4 2.3.5 3.5.5 1.6 0 3.1-.3 4.6-.9 1.5-.7 2.7-1.8 3.6-3.1l2.9 1.9c-1.2 1.8-2.9 3.3-4.9 4.3-1.9 1-4 1.4-6.2 1.4z" transform="translate(343.321 240.462)"/>
  <path d="M-173.7-84.2c-1.7 0-3.4-.2-5-.8-1.4-.5-2.7-1.2-3.9-2.2-1.1-.9-1.9-2.1-2.5-3.4-1.2-2.8-1.2-6 0-8.8.6-1.3 1.4-2.5 2.5-3.4 1.1-1 2.4-1.7 3.9-2.2 3.3-1 6.8-1 10.1 0 1.4.5 2.7 1.2 3.9 2.2 1.1.9 1.9 2.1 2.5 3.4 1.2 2.8 1.2 6 0 8.8-.6 1.3-1.4 2.5-2.5 3.4-1.1 1-2.4 1.7-3.9 2.2-1.7.6-3.4.8-5.1.8zm0-18c-1.2 0-2.4.2-3.6.5-1 .3-1.9.8-2.8 1.5-.8.6-1.4 1.4-1.8 2.3-.8 1.9-.8 4 0 5.9.4.9 1 1.7 1.8 2.3.8.7 1.8 1.2 2.8 1.5 1.2.4 2.4.5 3.6.5 1.2 0 2.4-.2 3.6-.5 1-.3 1.9-.8 2.8-1.5.8-.6 1.4-1.4 1.8-2.3.8-1.9.8-4 0-5.9-.4-.9-1-1.7-1.8-2.3-.8-.7-1.7-1.2-2.8-1.5-1.2-.3-2.4-.5-3.6-.5z" transform="translate(368.643 240.343)"/>
  <path d="M-173.7-84.2c-1.7 0-3.4-.2-5-.8-1.4-.5-2.7-1.2-3.9-2.2-1.1-.9-1.9-2.1-2.5-3.4-1.2-2.8-1.2-6 0-8.8.6-1.3 1.4-2.5 2.5-3.4 1.1-1 2.4-1.7 3.9-2.2 3.3-1 6.8-1 10.1 0 1.4.5 2.7 1.2 3.9 2.2 1.1.9 1.9 2.1 2.5 3.4 1.2 2.8 1.2 6 0 8.8-.6 1.3-1.4 2.5-2.5 3.4-1.1 1-2.4 1.7-3.9 2.2-1.7.6-3.4.8-5.1.8zm0-18c-1.2 0-2.4.2-3.6.5-1 .3-1.9.8-2.8 1.5-.8.6-1.4 1.4-1.8 2.3-.8 1.9-.8 4 0 5.9.4.9 1 1.7 1.8 2.3.8.7 1.8 1.2 2.8 1.5 1.2.4 2.4.5 3.6.5 1.2 0 2.4-.2 3.6-.5 1-.3 1.9-.8 2.8-1.5.8-.6 1.4-1.4 1.8-2.3.8-1.9.8-4 0-5.9-.4-.9-1-1.7-1.8-2.3-.8-.7-1.7-1.2-2.8-1.5-1.2-.3-2.4-.5-3.6-.5z" transform="translate(395.893 240.343)"/>
  <path d="M-162.8-85.1h-21.9V-105h3.5v16.4h18.3v3.5z" transform="translate(422.087 240.488)"/>
  <path d="m-174.2-82.5.1-25.1h1l-.1 25.1h-1z" transform="translate(324.527 240.979)"/>
  <path d="M-178.3-97.4c1.5 2.9 3.1 5.8 4.7 8.8.2-.4.5-1 .9-1.7.4-.8.9-1.6 1.4-2.6.5-1 1.1-2 1.7-3.2.6-1.1 1.2-2.3 1.9-3.5.6-1.2 1.3-2.3 1.9-3.5.6-1.1 1.2-2.2 1.7-3.2h.4c.2 2 .5 4 .7 5.9.2 1.9.4 3.8.6 5.6.2 1.8.4 3.7.6 5.5.2 1.8.4 3.6.7 5.4-.2 0-.5-.1-.8-.1h-1.5c-.3 0-.5 0-.8.1-.2-2.8-.5-5.6-.7-8.3-.2-2.7-.5-5.4-.9-8.2h-.1c-1.5 2.7-2.9 5.4-4.3 8-1.4 2.7-2.8 5.4-4 8.3h-.3c-1.3-2.7-2.6-5.4-4-8.1-1.4-2.7-2.8-5.5-4.2-8.3h-.1c-.1 1.3-.3 2.8-.5 4.3s-.3 3.1-.5 4.6c-.2 1.5-.3 2.9-.4 4.3-.1 1.3-.2 2.4-.2 3.3-.7-.1-1.5-.1-2.2 0 .3-1.7.6-3.6.9-5.5.3-1.9.6-3.9.9-5.8.3-1.9.5-3.9.8-5.7.2-1.9.4-3.7.6-5.4h.5c1.6 3.2 3.1 6.1 4.6 9z" transform="translate(222.243 241.13)"/>
  <path d="M-181.6-95c0-1.3.2-2.5.7-3.7.4-.9 1-1.8 1.8-2.5.7-.6 1.6-1.1 2.5-1.4 1.8-.6 3.7-.6 5.6 0 .9.3 1.8.8 2.5 1.4.8.7 1.4 1.5 1.8 2.5.9 2.4.9 5 0 7.4-.4.9-1 1.8-1.8 2.5-.7.6-1.6 1.1-2.5 1.3-1.8.5-3.7.5-5.6 0-.9-.3-1.8-.7-2.5-1.3-.8-.7-1.4-1.5-1.8-2.5-.5-1.2-.7-2.4-.7-3.7zm2.9 0c0 .9.1 1.7.2 2.6.1.8.4 1.5.8 2.2.4.6.9 1.2 1.5 1.6 1.5.8 3.3.8 4.7 0 .6-.4 1.2-.9 1.5-1.6.4-.7.7-1.4.8-2.2.3-1.7.3-3.5 0-5.2-.1-.8-.4-1.5-.8-2.2-.4-.6-.9-1.2-1.5-1.6-1.5-.8-3.3-.8-4.7 0-.6.4-1.2.9-1.5 1.6-.4.7-.7 1.4-.8 2.2-.2.9-.3 1.7-.2 2.6z" transform="translate(245.459 244.721)"/>
  <path d="M-169.1-86.2c-.2.4-.4.8-.7 1.1-.3.4-.7.8-1.1 1.1-.5.4-1 .6-1.6.8-.7.2-1.4.3-2.1.3-.8 0-1.6-.1-2.4-.4-.8-.3-1.5-.7-2.1-1.4-.7-.7-1.2-1.5-1.5-2.4-.4-1.1-.6-2.4-.6-3.6 0-1.2.2-2.4.6-3.6.4-.9.9-1.8 1.6-2.5.6-.7 1.4-1.2 2.2-1.5.8-.3 1.6-.5 2.5-.5 2.2-.1 4.2 1.2 4.9 3.2h.1v-11.8c.3 0 .5.1.7.1h1.4c.2 0 .5-.1.8-.1-.1.7-.1 1.7-.2 3 0 1.3-.1 2.7-.1 4.3 0 1.6-.1 3.2-.1 4.8v8.5c0 1.2 0 2.4.1 3.6-.4 0-.8-.1-1.2-.1-.4 0-.8 0-1.2.1v-3zm-9.1-4.2c0 1.1.1 2.1.4 3.2.2.7.6 1.4 1 2 .4.5.9.8 1.4 1 .5.2 1 .3 1.6.3.8 0 1.5-.2 2.1-.6.6-.4 1.1-1 1.5-1.6.4-.7.7-1.5.9-2.3.2-.8.3-1.7.3-2.6.1-1.6-.3-3.3-1.2-4.7-.8-1.1-2.1-1.7-3.5-1.6-.7 0-1.4.2-2 .5-.6.4-1.1.9-1.4 1.5-.4.7-.7 1.4-.8 2.2-.2.9-.3 1.8-.3 2.7z" transform="translate(262.9 240.432)"/>
  <path d="M-180.6-94.5c-.1-2.2.5-4.4 1.9-6.2 1.4-1.5 3.4-2.4 5.5-2.2 1 0 2 .2 2.9.5.8.3 1.5.8 2.1 1.4.6.6 1 1.3 1.2 2.1.3.8.4 1.7.4 2.5v1.2c-1.2 0-2.3 0-3.4-.1h-5.5c-.7 0-1.4 0-2.1.1v.9c0 .8.1 1.6.4 2.3.2.7.6 1.3 1.1 1.9.5.5 1.1 1 1.7 1.2.7.3 1.6.5 2.4.5.4 0 .9-.1 1.3-.2.5-.1.9-.3 1.3-.5s.8-.4 1.2-.7c.4-.3.7-.6 1-.9l.2.1-.2 1.6c-.7.6-1.5 1-2.4 1.3-.9.4-1.9.5-3 .5s-2.1-.2-3.2-.5c-.9-.3-1.8-.9-2.5-1.5-.7-.7-1.2-1.5-1.6-2.4-.5-.9-.7-1.9-.7-2.9zm7.4-7.4c-.7 0-1.4.2-2 .5-.5.4-1 .8-1.3 1.4-.4.6-.6 1.2-.8 1.8-.2.6-.3 1.2-.3 1.8.7 0 1.3 0 2.1.1h4.2c.7 0 1.4 0 2.1-.1 0-.6-.1-1.2-.1-1.8-.1-.6-.3-1.2-.6-1.8-.3-.5-.7-1-1.2-1.4-.7-.3-1.4-.5-2.1-.5z" transform="translate(280.084 244.669)"/>
  <path d="M-170.9-100.2c-.3-.1-.6-.2-.9-.2-.5 0-1 .1-1.4.4-.4.2-.8.6-1 .9-.3.4-.5.9-.6 1.4-.2.6-.2 1.2-.2 1.7v6.8c0 .6 0 1.2.1 1.8-.4 0-.9-.1-1.3-.1s-.9 0-1.3.1c.1-.7.1-1.7.1-3v-8.5c0-1.1 0-2.3-.1-3.7.2 0 .5.1.7.1H-175.5c.2 0 .4-.1.7-.1-.1.8-.1 1.4-.1 1.8v1.3h.1c1.3-2.3 2.7-3.5 4.2-3.5h.5c.2 0 .4.1.5.2-.1.4-.2.8-.2 1.2v1.4l-.2.2c-.4 0-.6-.1-.9-.2z" transform="translate(294.37 244.569)"/>
  <path d="M-170.7-99.9c-.6-.8-1.6-1.3-2.6-1.2-1.3-.1-2.5.4-3.3 1.4-.8 1.1-1.1 2.5-1 3.9v5.7c0 1.1.1 2 .2 2.9-.5 0-1-.1-1.4-.1-.5 0-1 0-1.4.1.1-.9.2-1.8.2-2.9v-9.3c0-1.1-.1-2-.2-3 .5.1 1 .1 1.4.2h.6c.2 0 .4-.1.7-.1-.1.9-.1 1.7-.1 2.6h.1c.5-.9 1.3-1.6 2.1-2.1.9-.5 1.9-.8 3-.8.6 0 1.2.1 1.8.3.6.2 1.2.5 1.6.9.5.5.9 1 1.2 1.7.3.9.5 1.8.5 2.7 0 .9 0 1.9-.1 2.8 0 1-.1 2-.1 3.1v4c-.4 0-.9-.1-1.3-.1s-.9 0-1.3.1c0-1.1.1-2.3.1-3.4.1-1.2.1-2.4.1-3.6v-2c.2-1.4-.1-2.7-.8-3.8z" transform="translate(307.617 244.556)"/>
  <path d="m-190.7-94.5 22.6-13.8V-88l-12-7.7v35.6l-19.5-8.5V-89l4.6-2.8 4.3-2.7zm-5.5.3-6.1 3.6V-67l24.9 10.9v-34.6l15.5 10v24.6l16.8-7.9v-10l-14.1-8.3v-51.3l-26.1-.2v33.3l-5.4 3.2-5.5 3.1zm34.3 10.1-3.5-2.3v-27l-17.2 11.1v-28.8h20.8v47zm14.1 18.4-11.5 5.5V-79l11.5 6.6v6.7z" transform="translate(314.209 164.963)"/>
  <path d="M-179.7-101.9v13.8l11.9-13.7-11.9-.1z" style="fill:#26a9e0" transform="translate(311.24 135.67)"/>
  <path d="m-166-103.7-15.3 17.3" style="fill:#fff;fill-opacity:0;stroke:#000;stroke-width:2.254;stroke-miterlimit:10" transform="translate(311.385 136.314)"/>
  <path d="M-173.7-104.5c5.2 0 9.4 4.2 9.4 9.4s-4.2 9.4-9.4 9.4-9.4-4.2-9.4-9.4 4.2-9.4 9.4-9.4z" style="fill-opacity:0;stroke:#6d6d6d;stroke-width:1.123;stroke-miterlimit:10" transform="translate(347.701 105.041)"/>
  <path class="st3" d="M-228.8-99.9v9.6h110.3v-.5h-99.3l-11-9.1z" transform="translate(400.102 191.267)"/>
  <path class="st3" d="m-119.2-83.7.2-22.6h-109.3v.5h75l34.1 22.1z" transform="translate(228.322 181.958)"/>
</svg>
