<svg xmlns="http://www.w3.org/2000/svg" viewBox="0 0 69.3 22" width="200">
	<path d="M45 21.6L34 10.7v1.9l9 9h2zm-2.8 0L34 13.4v2l6.2 6.2h2zm-2.8 0L34 16.2v1.9l3.5 3.5h1.9zm5.4-14.1v-2l-7.6 7.6 1 1 6.6-6.6zM47.5 0L35.8 11.7l1 1L47.5 1.9V0zm-2.8 0L34.4 10.3l1 1 9.4-9.4-.1-1.9zm-32 14.6c0-3.1-2.1-5.6-5.3-5.6C4.1 8.9 2 11.4 2 14.6c0 3.1 2.1 5.6 5.3 5.6 3.3 0 5.4-2.5 5.4-5.6M0 14.6c0-4.2 3.1-7.4 7.4-7.4 4.3 0 7.4 3.2 7.4 7.4S11.7 22 7.4 22 0 18.8 0 14.6m28.4 0c0-3.1-2.1-5.6-5.3-5.6s-5.3 2.5-5.3 5.6c0 3.1 2.1 5.6 5.3 5.6 3.2 0 5.3-2.5 5.3-5.6m-12.8 0c0-4.2 3.1-7.4 7.4-7.4 4.3 0 7.4 3.2 7.4 7.4S27.3 22 23 22s-7.4-3.2-7.4-7.4m30-7.1h1.9v12.4h7.1v1.8h-9V7.5zm16.5 2.4l-4.8 11.7h-2.2l6-14.2h2.1L69 21.6h-2.2L62.1 9.9zM31.4 7.5h1.9v14.2h-1.9V7.5zm37 0c.2 0 .3 0 .5.1s.3.2.4.4c.2.3.2.7 0 1-.3.5-.9.6-1.3.3-.1-.1-.3-.2-.3-.3-.3-.5-.1-1.1.4-1.3 0-.2.1-.2.3-.2zm0 .1c-.1 0-.3 0-.4.1-.4.2-.5.7-.3 1.1.2.4.7.5 1.1.3l.3-.3c.1-.2.1-.6 0-.8l-.3-.3c-.1 0-.3-.1-.4-.1zM68 9V8h.7c.1 0 .2.1.2.3 0 .1 0 .1-.1.2s-.1.1-.2.1c0 0 .1 0 .1.1l.2.2-.1.1h-.2l-.1-.2c-.1-.1-.1-.2-.2-.2h-.2V9H68zm.1-.6h.4l.1-.1v-.1l-.1-.1h-.4v.3z" fill="#181512"/>
</svg>